{"title":"Knock Knock 2015 720p WEB-DL","uid":12539915,"size":3128057181,"categoryP":"video","categoryS":"hd___movies","magnet":"?xt=urn:btih:50d85b03db8f778274a4af14f04e512f01ba18a7&amp;dn=Knock+Knock+2015+720p+WEB-DL&amp;tr=udp%3A%2F%2Ftracker.leechers-paradise.org%3A6969&amp;tr=udp%3A%2F%2Fzer0day.ch%3A1337&amp;tr=udp%3A%2F%2Fopen.demonii.com%3A1337&amp;tr=udp%3A%2F%2Ftracker.coppersurfer.tk%3A6969&amp;tr=udp%3A%2F%2Fexodus.desync.com%3A6969","seeders":0,"leechers":1,"uploader":"Joker__TPB","files":5,"time":1444384119,"description":"=================================================================\r\nWhen a devoted husband and father is left home alone for the weekend| two stranded young women unexpectedly knock on his door for help. What starts out as a kind\r\ngesture results in a dangerous seduction and a deadly game of cat and mouse. A sexy new thriller from director Eli Roth and written for the screen by Eli Roth &amp;\r\nNicolás López &amp; Guillermo Amoedo and story by Anthony Overman and Michael Ronald| KNOCK KNOCK stars Keanu Reeves as the family man who falls into temptation and\r\nLorenza Izzo and Ana de Armas as the seductresses who wreak havoc upon his life| turning a married man's dark fantasy into his worst nightmare. KNOCK KNOCK will be\r\nreleased by Lionsgate Premiere in theaters and On Demand on October 9th.\r\n=================================================================\r\nscreens: \nhttp://extraimago.com/image/3ns \nhttp://extraimago.com/image/3n7 \nhttp://extraimago.com/image/3nc \nhttp://extraimago.com/image/3n1\r\n=================================================================\r\nmedia info:\r\n\r\nVideo\r\nID                                       : 0\r\nFormat                                   : MPEG-4 Visual\r\nFormat profile                           :   \r\nFormat settings, BVOP                    : No\r\nFormat settings, QPel                    : No\r\nFormat settings, GMC                     : No warppoints\r\nFormat settings, Matrix                  : Default (H.263)\r\nCodec ID                                 : XVID\r\nCodec ID/Hint                            : XviD\r\nDuration                                 : 1h 39mn\r\nBit rate                                 : 3 784 Kbps\r\nWidth                                    : 1 280 pixels\r\nHeight                                   : 534 pixels\r\nDisplay aspect ratio                     : 2.40:1\r\nFrame rate                               : 23.976 fps\r\nColor space                              : YUV\r\nChroma subsampling                       : 4:2:0\r\nBit depth                                : 8 bits\r\nScan type                                : Progressive\r\nCompression mode                         : Lossy\r\nBits/(Pixel*Frame)                       : 0.231\r\nStream size                              : 2.64 GiB (91%)\r\nWriting library                          : Lavc56.13.100\r\n\r\nAudio\r\nID                                       : 1\r\nFormat                                   : AC-3\r\nFormat/Info                              : Audio Coding 3\r\nMode extension                           : CM (complete main)\r\nFormat settings, Endianness              : Big\r\nCodec ID                                 : 2000\r\nDuration                                 : 1h 39mn\r\nBit rate mode                            : Constant\r\nBit rate                                 : 384 Kbps\r\nChannel(s)                               : 6 channels\r\nChannel positions                        : Front: L C R, Side: L R, LFE\r\nSampling rate                            : 48.0 KHz\r\nCompression mode                         : Lossy\r\nStream size                              : 274 MiB (9%)\r\nAlignment                                : Aligned on interleaves\r\nInterleave, duration                     : 42 ms (1.00 video frame)\r\nInterleave, preload duration             : 512 ms\r\n\r\n=================================================================","torrent":{"xt":"urn:btih:50d85b03db8f778274a4af14f04e512f01ba18a7","amp;dn":"Knock+Knock+2015+720p+WEB-DL","amp;tr":["udp%3A%2F%2Ftracker.leechers-paradise.org%3A6969","udp%3A%2F%2Fzer0day.ch%3A1337","udp%3A%2F%2Fopen.demonii.com%3A1337","udp%3A%2F%2Ftracker.coppersurfer.tk%3A6969","udp%3A%2F%2Fexodus.desync.com%3A6969"],"infoHash":"50d85b03db8f778274a4af14f04e512f01ba18a7","infoHashBuffer":{"type":"Buffer","data":[80,216,91,3,219,143,119,130,116,164,175,20,240,78,81,47,1,186,24,167]},"announce":[],"urlList":[]}}